<?xml version="1.0" encoding="UTF-8" standalone="no"?>
<!DOCTYPE svg PUBLIC "-//W3C//DTD SVG 1.1//EN"
 "http://www.w3.org/Graphics/SVG/1.1/DTD/svg11.dtd">
<!-- Generated by graphviz version 2.38.0 (20140413.2041)
 -->
<!-- Title: ER Pages: 1 -->
<svg width="2012pt" height="1200pt"
 viewBox="0.00 0.00 2012.00 1200.00" xmlns="http://www.w3.org/2000/svg" xmlns:xlink="http://www.w3.org/1999/xlink">
<g id="graph0" class="graph" transform="scale(1 1) rotate(0) translate(4 1196)">
<title>ER</title>
<polygon fill="white" stroke="none" points="-4,4 -4,-1196 2008,-1196 2008,4 -4,4"/>
<!-- Region -->
<g id="node1" class="node"><title>Region</title>
<polygon fill="#f8f9fa" stroke="black" points="727.5,-1192 678.5,-1192 678.5,-1166 727.5,-1166 727.5,-1192"/>
<text text-anchor="middle" x="703" y="-1176.2" font-family="Microsoft YaHei" font-size="11.00">区域</text>
</g>
<!-- R1 -->
<g id="node18" class="node"><title>R1</title>
<polygon fill="#e3f2fd" stroke="black" points="703,-1083 654,-1057 703,-1031 752,-1057 703,-1083"/>
<text text-anchor="middle" x="703" y="-1054.2" font-family="Microsoft YaHei" font-size="11.00">包含</text>
</g>
<!-- Region&#45;&gt;R1 -->
<g id="edge1" class="edge"><title>Region&#45;&gt;R1</title>
<path fill="none" stroke="#333333" d="M703,-1165.61C703,-1146.21 703,-1108.27 703,-1083.02"/>
<text text-anchor="middle" x="706.5" y="-1122" font-family="Microsoft YaHei" font-size="10.00">1</text>
</g>
<!-- School -->
<g id="node2" class="node"><title>School</title>
<polygon fill="#f8f9fa" stroke="black" points="727.5,-948 678.5,-948 678.5,-922 727.5,-922 727.5,-948"/>
<text text-anchor="middle" x="703" y="-932.2" font-family="Microsoft YaHei" font-size="11.00">学校</text>
</g>
<!-- R2 -->
<g id="node19" class="node"><title>R2</title>
<polygon fill="#e3f2fd" stroke="black" points="703,-839 654,-813 703,-787 752,-813 703,-839"/>
<text text-anchor="middle" x="703" y="-810.2" font-family="Microsoft YaHei" font-size="11.00">拥有</text>
</g>
<!-- School&#45;&gt;R2 -->
<g id="edge3" class="edge"><title>School&#45;&gt;R2</title>
<path fill="none" stroke="#333333" d="M703,-921.61C703,-902.208 703,-864.269 703,-839.024"/>
<text text-anchor="middle" x="706.5" y="-878" font-family="Microsoft YaHei" font-size="10.00">1</text>
</g>
<!-- R7 -->
<g id="node26" class="node"><title>R7</title>
<polygon fill="#e3f2fd" stroke="black" points="258,-663 209,-637 258,-611 307,-637 258,-663"/>
<text text-anchor="middle" x="258" y="-634.2" font-family="Microsoft YaHei" font-size="11.00">产生</text>
</g>
<!-- School&#45;&gt;R7 -->
<g id="edge18" class="edge"><title>School&#45;&gt;R7</title>
<path fill="none" stroke="#333333" d="M678.17,-933.285C635.957,-931.072 548.691,-922.106 486,-886 382.61,-826.453 299.216,-704.327 269.602,-657.17"/>
<text text-anchor="middle" x="424.5" y="-810.5" font-family="Microsoft YaHei" font-size="10.00">1</text>
</g>
<!-- R10 -->
<g id="node29" class="node"><title>R10</title>
<polygon fill="#e3f2fd" stroke="black" points="1311,-575 1262,-549 1311,-523 1360,-549 1311,-575"/>
<text text-anchor="middle" x="1311" y="-546.2" font-family="Microsoft YaHei" font-size="11.00">产生</text>
</g>
<!-- School&#45;&gt;R10 -->
<g id="edge24" class="edge"><title>School&#45;&gt;R10</title>
<path fill="none" stroke="#333333" d="M727.669,-924.5C767.267,-908.853 846.958,-875.715 910,-839 1066.1,-748.091 1236.61,-611.286 1292.29,-565.528"/>
<text text-anchor="middle" x="997.5" y="-810.5" font-family="Microsoft YaHei" font-size="10.00">1</text>
</g>
<!-- R11 -->
<g id="node30" class="node"><title>R11</title>
<polygon fill="#e3f2fd" stroke="black" points="874,-751 825,-725 874,-699 923,-725 874,-751"/>
<text text-anchor="middle" x="874" y="-722.2" font-family="Microsoft YaHei" font-size="11.00">产生</text>
</g>
<!-- School&#45;&gt;R11 -->
<g id="edge26" class="edge"><title>School&#45;&gt;R11</title>
<path fill="none" stroke="#333333" d="M712.933,-921.918C741.801,-886.803 825.78,-784.654 859.619,-743.493"/>
<text text-anchor="middle" x="753.5" y="-878" font-family="Microsoft YaHei" font-size="10.00">1</text>
</g>
<!-- R13 -->
<g id="node32" class="node"><title>R13</title>
<polygon fill="#e3f2fd" stroke="black" points="196,-575 147,-549 196,-523 245,-549 196,-575"/>
<text text-anchor="middle" x="196" y="-546.2" font-family="Microsoft YaHei" font-size="11.00">产生</text>
</g>
<!-- School&#45;&gt;R13 -->
<g id="edge30" class="edge"><title>School&#45;&gt;R13</title>
<path fill="none" stroke="#333333" d="M688.539,-921.621C620.285,-863.204 333.233,-617.648 323,-611 290.592,-589.946 249.81,-571.644 223.337,-560.717"/>
<text text-anchor="middle" x="595.5" y="-810.5" font-family="Microsoft YaHei" font-size="10.00">1</text>
</g>
<!-- R15 -->
<g id="node34" class="node"><title>R15</title>
<polygon fill="#e3f2fd" stroke="black" points="1398,-249 1349,-223 1398,-197 1447,-223 1398,-249"/>
<text text-anchor="middle" x="1398" y="-220.2" font-family="Microsoft YaHei" font-size="11.00">产生</text>
</g>
<!-- School&#45;&gt;R15 -->
<g id="edge34" class="edge"><title>School&#45;&gt;R15</title>
<path fill="none" stroke="#333333" d="M727.534,-929.919C829.18,-911.521 1218.58,-825.974 1361,-575 1423,-465.751 1409.43,-306.392 1401.56,-247.233"/>
<text text-anchor="middle" x="1339.5" y="-634.5" font-family="Microsoft YaHei" font-size="10.00">1</text>
</g>
<!-- R18 -->
<g id="node37" class="node"><title>R18</title>
<polygon fill="#e3f2fd" stroke="black" points="49,-751 1.42109e-014,-725 49,-699 98,-725 49,-751"/>
<text text-anchor="middle" x="49" y="-722.2" font-family="Microsoft YaHei" font-size="11.00">产生</text>
</g>
<!-- School&#45;&gt;R18 -->
<g id="edge40" class="edge"><title>School&#45;&gt;R18</title>
<path fill="none" stroke="#333333" d="M678.136,-933.261C621.231,-930.977 477.668,-921.825 364,-886 246.413,-848.94 119.286,-771.44 70.0889,-739.851"/>
<text text-anchor="middle" x="367.5" y="-878" font-family="Microsoft YaHei" font-size="10.00">1</text>
</g>
<!-- R20 -->
<g id="node39" class="node"><title>R20</title>
<polygon fill="#e3f2fd" stroke="black" points="1049,-663 1000,-637 1049,-611 1098,-637 1049,-663"/>
<text text-anchor="middle" x="1049" y="-634.2" font-family="Microsoft YaHei" font-size="11.00">产生</text>
</g>
<!-- School&#45;&gt;R20 -->
<g id="edge44" class="edge"><title>School&#45;&gt;R20</title>
<path fill="none" stroke="#333333" d="M720.248,-921.915C760.153,-893.684 861.361,-820.516 939,-751 974.695,-719.04 1012.99,-677.97 1033.65,-655.181"/>
<text text-anchor="middle" x="898.5" y="-810.5" font-family="Microsoft YaHei" font-size="10.00">1</text>
</g>
<!-- R23 -->
<g id="node42" class="node"><title>R23</title>
<polygon fill="#e3f2fd" stroke="black" points="351,-575 302,-549 351,-523 400,-549 351,-575"/>
<text text-anchor="middle" x="351" y="-546.2" font-family="Microsoft YaHei" font-size="11.00">产生</text>
</g>
<!-- School&#45;&gt;R23 -->
<g id="edge50" class="edge"><title>School&#45;&gt;R23</title>
<path fill="none" stroke="#333333" d="M692.133,-921.811C676.995,-904.39 649.356,-870.937 631,-839 576.295,-743.824 618.162,-683.805 536,-611 491.77,-571.807 463.639,-594.917 408,-575 397.318,-571.176 385.809,-566.283 375.949,-561.842"/>
<text text-anchor="middle" x="634.5" y="-810.5" font-family="Microsoft YaHei" font-size="10.00">1</text>
</g>
<!-- Supplier -->
<g id="node3" class="node"><title>Supplier</title>
<polygon fill="#f8f9fa" stroke="black" points="1553,-948 1493,-948 1493,-922 1553,-922 1553,-948"/>
<text text-anchor="middle" x="1523" y="-932.2" font-family="Microsoft YaHei" font-size="11.00">供应商</text>
</g>
<!-- R_supply -->
<g id="node21" class="node"><title>R_supply</title>
<polygon fill="#e3f2fd" stroke="black" points="1558,-487 1509,-461 1558,-435 1607,-461 1558,-487"/>
<text text-anchor="middle" x="1558" y="-458.2" font-family="Microsoft YaHei" font-size="11.00">供应</text>
</g>
<!-- Supplier&#45;&gt;R_supply -->
<g id="edge7" class="edge"><title>Supplier&#45;&gt;R_supply</title>
<path fill="none" stroke="#333333" d="M1524.05,-921.771C1524.88,-912.072 1526.05,-898.172 1527,-886 1538.89,-734.051 1551.77,-551.355 1556.3,-486.384"/>
<text text-anchor="middle" x="1544.5" y="-722.5" font-family="Microsoft YaHei" font-size="10.00">n</text>
</g>
<!-- R4 -->
<g id="node22" class="node"><title>R4</title>
<polygon fill="#e3f2fd" stroke="black" points="1475,-751 1426,-725 1475,-699 1524,-725 1475,-751"/>
<text text-anchor="middle" x="1475" y="-722.2" font-family="Microsoft YaHei" font-size="11.00">供货</text>
</g>
<!-- Supplier&#45;&gt;R4 -->
<g id="edge10" class="edge"><title>Supplier&#45;&gt;R4</title>
<path fill="none" stroke="#333333" d="M1520.21,-921.918C1512.41,-888.104 1490.26,-792.129 1480.15,-748.311"/>
<text text-anchor="middle" x="1515.5" y="-878" font-family="Microsoft YaHei" font-size="10.00">1</text>
</g>
<!-- IngCat -->
<g id="node4" class="node"><title>IngCat</title>
<polygon fill="#f8f9fa" stroke="black" points="1821.5,-948 1750.5,-948 1750.5,-922 1821.5,-922 1821.5,-948"/>
<text text-anchor="middle" x="1786" y="-932.2" font-family="Microsoft YaHei" font-size="11.00">食材分类</text>
</g>
<!-- R3 -->
<g id="node20" class="node"><title>R3</title>
<polygon fill="#e3f2fd" stroke="black" points="1786,-839 1737,-813 1786,-787 1835,-813 1786,-839"/>
<text text-anchor="middle" x="1786" y="-810.2" font-family="Microsoft YaHei" font-size="11.00">分类</text>
</g>
<!-- IngCat&#45;&gt;R3 -->
<g id="edge5" class="edge"><title>IngCat&#45;&gt;R3</title>
<path fill="none" stroke="#333333" d="M1786,-921.61C1786,-902.208 1786,-864.269 1786,-839.024"/>
<text text-anchor="middle" x="1789.5" y="-878" font-family="Microsoft YaHei" font-size="10.00">1</text>
</g>
<!-- Canteen -->
<g id="node5" class="node"><title>Canteen</title>
<polygon fill="#f8f9fa" stroke="black" points="727.5,-650 678.5,-650 678.5,-624 727.5,-624 727.5,-650"/>
<text text-anchor="middle" x="703" y="-634.2" font-family="Microsoft YaHei" font-size="11.00">食堂</text>
</g>
<!-- Canteen&#45;&gt;R_supply -->
<g id="edge8" class="edge"><title>Canteen&#45;&gt;R_supply</title>
<path fill="none" stroke="#333333" d="M727.598,-633.82C848.284,-623.115 1372.16,-576.579 1376,-575 1409.58,-561.19 1408.67,-542.953 1439,-523 1469.45,-502.968 1507.31,-484.564 1532.04,-473.325"/>
<text text-anchor="middle" x="1442.5" y="-546.5" font-family="Microsoft YaHei" font-size="10.00">n</text>
</g>
<!-- R5 -->
<g id="node23" class="node"><title>R5</title>
<polygon fill="#e3f2fd" stroke="black" points="1127,-487 1078,-461 1127,-435 1176,-461 1127,-487"/>
<text text-anchor="middle" x="1127" y="-458.2" font-family="Microsoft YaHei" font-size="11.00">产生</text>
</g>
<!-- Canteen&#45;&gt;R5 -->
<g id="edge12" class="edge"><title>Canteen&#45;&gt;R5</title>
<path fill="none" stroke="#333333" d="M727.598,-630.634C767.537,-621.537 848.609,-601.467 914,-575 986.755,-545.552 1067.2,-498.623 1105.04,-475.617"/>
<text text-anchor="middle" x="1024.5" y="-546.5" font-family="Microsoft YaHei" font-size="10.00">1</text>
</g>
<!-- R8 -->
<g id="node27" class="node"><title>R8</title>
<polygon fill="#e3f2fd" stroke="black" points="343,-487 294,-461 343,-435 392,-461 343,-487"/>
<text text-anchor="middle" x="343" y="-458.2" font-family="Microsoft YaHei" font-size="11.00">产生</text>
</g>
<!-- Canteen&#45;&gt;R8 -->
<g id="edge20" class="edge"><title>Canteen&#45;&gt;R8</title>
<path fill="none" stroke="#333333" d="M678.18,-626.959C663.9,-621.923 645.559,-615.734 629,-611 561.834,-591.799 538.2,-606.799 476,-575 444.58,-558.937 442.874,-545.87 416,-523 397.636,-507.372 376.475,-489.729 361.68,-477.453"/>
<text text-anchor="middle" x="479.5" y="-546.5" font-family="Microsoft YaHei" font-size="10.00">1</text>
</g>
<!-- R12 -->
<g id="node31" class="node"><title>R12</title>
<polygon fill="#e3f2fd" stroke="black" points="801,-487 752,-461 801,-435 850,-461 801,-487"/>
<text text-anchor="middle" x="801" y="-458.2" font-family="Microsoft YaHei" font-size="11.00">产生</text>
</g>
<!-- Canteen&#45;&gt;R12 -->
<g id="edge28" class="edge"><title>Canteen&#45;&gt;R12</title>
<path fill="none" stroke="#333333" d="M709.891,-623.765C726.665,-593.983 769.728,-517.523 790.06,-481.424"/>
<text text-anchor="middle" x="770.5" y="-546.5" font-family="Microsoft YaHei" font-size="10.00">1</text>
</g>
<!-- R14 -->
<g id="node33" class="node"><title>R14</title>
<polygon fill="#e3f2fd" stroke="black" points="580,-399 531,-373 580,-347 629,-373 580,-399"/>
<text text-anchor="middle" x="580" y="-370.2" font-family="Microsoft YaHei" font-size="11.00">产生</text>
</g>
<!-- Canteen&#45;&gt;R14 -->
<g id="edge32" class="edge"><title>Canteen&#45;&gt;R14</title>
<path fill="none" stroke="#333333" d="M697.232,-623.715C677.664,-582.033 613.678,-445.737 589.43,-394.086"/>
<text text-anchor="middle" x="678.5" y="-546.5" font-family="Microsoft YaHei" font-size="10.00">1</text>
</g>
<!-- R16 -->
<g id="node35" class="node"><title>R16</title>
<polygon fill="#e3f2fd" stroke="black" points="724,-399 675,-373 724,-347 773,-373 724,-399"/>
<text text-anchor="middle" x="724" y="-370.2" font-family="Microsoft YaHei" font-size="11.00">产生</text>
</g>
<!-- Canteen&#45;&gt;R16 -->
<g id="edge36" class="edge"><title>Canteen&#45;&gt;R16</title>
<path fill="none" stroke="#333333" d="M703.985,-623.715C707.245,-583.045 717.724,-452.298 722.077,-397.994"/>
<text text-anchor="middle" x="715.5" y="-546.5" font-family="Microsoft YaHei" font-size="10.00">1</text>
</g>
<!-- R19 -->
<g id="node38" class="node"><title>R19</title>
<polygon fill="#e3f2fd" stroke="black" points="456,-399 407,-373 456,-347 505,-373 456,-399"/>
<text text-anchor="middle" x="456" y="-370.2" font-family="Microsoft YaHei" font-size="11.00">产生</text>
</g>
<!-- Canteen&#45;&gt;R19 -->
<g id="edge42" class="edge"><title>Canteen&#45;&gt;R19</title>
<path fill="none" stroke="#333333" d="M688.271,-623.95C674.318,-612.185 653.155,-593.414 637,-575 586.743,-517.713 591.234,-489.532 538,-435 519.78,-416.336 495.447,-398.993 478.029,-387.608"/>
<text text-anchor="middle" x="640.5" y="-546.5" font-family="Microsoft YaHei" font-size="10.00">1</text>
</g>
<!-- R21 -->
<g id="node40" class="node"><title>R21</title>
<polygon fill="#e3f2fd" stroke="black" points="997,-487 948,-461 997,-435 1046,-461 997,-487"/>
<text text-anchor="middle" x="997" y="-458.2" font-family="Microsoft YaHei" font-size="11.00">产生</text>
</g>
<!-- Canteen&#45;&gt;R21 -->
<g id="edge46" class="edge"><title>Canteen&#45;&gt;R21</title>
<path fill="none" stroke="#333333" d="M718.87,-623.795C755.795,-595.422 844.883,-527.108 852,-523 890.199,-500.949 937.909,-482.443 967.928,-471.786"/>
<text text-anchor="middle" x="855.5" y="-546.5" font-family="Microsoft YaHei" font-size="10.00">1</text>
</g>
<!-- R24 -->
<g id="node43" class="node"><title>R24</title>
<polygon fill="#e3f2fd" stroke="black" points="473,-487 424,-461 473,-435 522,-461 473,-487"/>
<text text-anchor="middle" x="473" y="-458.2" font-family="Microsoft YaHei" font-size="11.00">产生</text>
</g>
<!-- Canteen&#45;&gt;R24 -->
<g id="edge52" class="edge"><title>Canteen&#45;&gt;R24</title>
<path fill="none" stroke="#333333" d="M678.233,-627.63C629.275,-611.074 524.744,-575.676 524,-575 497.399,-550.826 483.801,-510.104 477.561,-484.711"/>
<text text-anchor="middle" x="527.5" y="-546.5" font-family="Microsoft YaHei" font-size="10.00">1</text>
</g>
<!-- Ingredient -->
<g id="node6" class="node"><title>Ingredient</title>
<polygon fill="#f8f9fa" stroke="black" points="1810.5,-650 1761.5,-650 1761.5,-624 1810.5,-624 1810.5,-650"/>
<text text-anchor="middle" x="1786" y="-634.2" font-family="Microsoft YaHei" font-size="11.00">食材</text>
</g>
<!-- R6 -->
<g id="node25" class="node"><title>R6</title>
<polygon fill="#e3f2fd" stroke="black" points="1955,-487 1906,-461 1955,-435 2004,-461 1955,-487"/>
<text text-anchor="middle" x="1955" y="-458.2" font-family="Microsoft YaHei" font-size="11.00">波动</text>
</g>
<!-- Ingredient&#45;&gt;R6 -->
<g id="edge16" class="edge"><title>Ingredient&#45;&gt;R6</title>
<path fill="none" stroke="#333333" d="M1810.79,-626.335C1834.03,-616.297 1868.59,-598.731 1892,-575 1918.5,-548.137 1937.35,-507.867 1947.18,-483.355"/>
<text text-anchor="middle" x="1931.5" y="-546.5" font-family="Microsoft YaHei" font-size="10.00">1</text>
</g>
<!-- R17 -->
<g id="node36" class="node"><title>R17</title>
<polygon fill="#e3f2fd" stroke="black" points="1862,-249 1813,-223 1862,-197 1911,-223 1862,-249"/>
<text text-anchor="middle" x="1862" y="-220.2" font-family="Microsoft YaHei" font-size="11.00">验收</text>
</g>
<!-- Ingredient&#45;&gt;R17 -->
<g id="edge38" class="edge"><title>Ingredient&#45;&gt;R17</title>
<path fill="none" stroke="#333333" d="M1792.09,-623.696C1797.83,-611.592 1806.24,-592.444 1811,-575 1843.77,-455.009 1856.58,-305.839 1860.52,-248.247"/>
<text text-anchor="middle" x="1842.5" y="-458.5" font-family="Microsoft YaHei" font-size="10.00">1</text>
</g>
<!-- R22 -->
<g id="node41" class="node"><title>R22</title>
<polygon fill="#e3f2fd" stroke="black" points="1688,-487 1639,-461 1688,-435 1737,-461 1688,-487"/>
<text text-anchor="middle" x="1688" y="-458.2" font-family="Microsoft YaHei" font-size="11.00">摄入</text>
</g>
<!-- Ingredient&#45;&gt;R22 -->
<g id="edge48" class="edge"><title>Ingredient&#45;&gt;R22</title>
<path fill="none" stroke="#333333" d="M1779.11,-623.765C1762.34,-593.983 1719.27,-517.523 1698.94,-481.424"/>
<text text-anchor="middle" x="1754.5" y="-546.5" font-family="Microsoft YaHei" font-size="10.00">1</text>
</g>
<!-- Purchase -->
<g id="node7" class="node"><title>Purchase</title>
<polygon fill="#f8f9fa" stroke="black" points="1256.5,-311 1185.5,-311 1185.5,-285 1256.5,-285 1256.5,-311"/>
<text text-anchor="middle" x="1221" y="-295.2" font-family="Microsoft YaHei" font-size="11.00">采购订单</text>
</g>
<!-- R_purchase -->
<g id="node24" class="node"><title>R_purchase</title>
<polygon fill="#e3f2fd" stroke="black" points="1609,-161 1560,-135 1609,-109 1658,-135 1609,-161"/>
<text text-anchor="middle" x="1609" y="-132.2" font-family="Microsoft YaHei" font-size="11.00">采购</text>
</g>
<!-- Purchase&#45;&gt;R_purchase -->
<g id="edge14" class="edge"><title>Purchase&#45;&gt;R_purchase</title>
<path fill="none" stroke="#333333" d="M1229.91,-284.947C1246.36,-263.618 1283.72,-219.369 1326,-197 1403.74,-155.866 1507.44,-142.464 1565.28,-138.102"/>
<text text-anchor="middle" x="1329.5" y="-220.5" font-family="Microsoft YaHei" font-size="10.00">n</text>
</g>
<!-- PriceRec -->
<g id="node8" class="node"><title>PriceRec</title>
<polygon fill="#f8f9fa" stroke="black" points="1990.5,-311 1919.5,-311 1919.5,-285 1990.5,-285 1990.5,-311"/>
<text text-anchor="middle" x="1955" y="-295.2" font-family="Microsoft YaHei" font-size="11.00">食材价格</text>
</g>
<!-- DailyCtrl -->
<g id="node9" class="node"><title>DailyCtrl</title>
<polygon fill="#f8f9fa" stroke="black" points="147,-311 87,-311 87,-285 147,-285 147,-311"/>
<text text-anchor="middle" x="117" y="-295.2" font-family="Microsoft YaHei" font-size="11.00">日管控</text>
</g>
<!-- R9 -->
<g id="node28" class="node"><title>R9</title>
<polygon fill="#e3f2fd" stroke="black" points="138,-161 89,-135 138,-109 187,-135 138,-161"/>
<text text-anchor="middle" x="138" y="-132.2" font-family="Microsoft YaHei" font-size="11.00">包含</text>
</g>
<!-- DailyCtrl&#45;&gt;R9 -->
<g id="edge22" class="edge"><title>DailyCtrl&#45;&gt;R9</title>
<path fill="none" stroke="#333333" d="M118.578,-284.899C122.05,-258.28 130.402,-194.251 134.94,-159.459"/>
<text text-anchor="middle" x="133.5" y="-220.5" font-family="Microsoft YaHei" font-size="10.00">1</text>
</g>
<!-- WeeklyInsp -->
<g id="node10" class="node"><title>WeeklyInsp</title>
<polygon fill="#f8f9fa" stroke="black" points="1349,-311 1289,-311 1289,-285 1349,-285 1349,-311"/>
<text text-anchor="middle" x="1319" y="-295.2" font-family="Microsoft YaHei" font-size="11.00">周排查</text>
</g>
<!-- MonthlyDisp -->
<g id="node11" class="node"><title>MonthlyDisp</title>
<polygon fill="#f8f9fa" stroke="black" points="897,-311 837,-311 837,-285 897,-285 897,-311"/>
<text text-anchor="middle" x="867" y="-295.2" font-family="Microsoft YaHei" font-size="11.00">月调度</text>
</g>
<!-- Order -->
<g id="node12" class="node"><title>Order</title>
<polygon fill="#f8f9fa" stroke="black" points="478.5,-26 407.5,-26 407.5,-0 478.5,-0 478.5,-26"/>
<text text-anchor="middle" x="443" y="-10.2" font-family="Microsoft YaHei" font-size="11.00">订餐记录</text>
</g>
<!-- IngAccept -->
<g id="node13" class="node"><title>IngAccept</title>
<polygon fill="#f8f9fa" stroke="black" points="1433.5,-26 1362.5,-26 1362.5,-0 1433.5,-0 1433.5,-26"/>
<text text-anchor="middle" x="1398" y="-10.2" font-family="Microsoft YaHei" font-size="11.00">食材验收</text>
</g>
<!-- Evaluation -->
<g id="node14" class="node"><title>Evaluation</title>
<polygon fill="#f8f9fa" stroke="black" points="72.5,-26 1.5,-26 1.5,-0 72.5,-0 72.5,-26"/>
<text text-anchor="middle" x="37" y="-10.2" font-family="Microsoft YaHei" font-size="11.00">师生评价</text>
</g>
<!-- DCItem -->
<g id="node15" class="node"><title>DCItem</title>
<polygon fill="#f8f9fa" stroke="black" points="175.5,-26 104.5,-26 104.5,-0 175.5,-0 175.5,-26"/>
<text text-anchor="middle" x="140" y="-10.2" font-family="Microsoft YaHei" font-size="11.00">管控明细</text>
</g>
<!-- StuNutri -->
<g id="node16" class="node"><title>StuNutri</title>
<polygon fill="#f8f9fa" stroke="black" points="1153.5,-311 1082.5,-311 1082.5,-285 1153.5,-285 1153.5,-311"/>
<text text-anchor="middle" x="1118" y="-295.2" font-family="Microsoft YaHei" font-size="11.00">学生营养</text>
</g>
<!-- Consump -->
<g id="node17" class="node"><title>Consump</title>
<polygon fill="#f8f9fa" stroke="black" points="321.5,-311 250.5,-311 250.5,-285 321.5,-285 321.5,-311"/>
<text text-anchor="middle" x="286" y="-295.2" font-family="Microsoft YaHei" font-size="11.00">消费记录</text>
</g>
<!-- R1&#45;&gt;School -->
<g id="edge2" class="edge"><title>R1&#45;&gt;School</title>
<path fill="none" stroke="#333333" d="M703,-1030.84C703,-1005.55 703,-967.621 703,-948.285"/>
<text text-anchor="middle" x="706.5" y="-987" font-family="Microsoft YaHei" font-size="10.00">n</text>
</g>
<!-- R2&#45;&gt;Canteen -->
<g id="edge4" class="edge"><title>R2&#45;&gt;Canteen</title>
<path fill="none" stroke="#333333" d="M703,-786.699C703,-748.808 703,-678.749 703,-650.395"/>
<text text-anchor="middle" x="706.5" y="-722.5" font-family="Microsoft YaHei" font-size="10.00">n</text>
</g>
<!-- R3&#45;&gt;Ingredient -->
<g id="edge6" class="edge"><title>R3&#45;&gt;Ingredient</title>
<path fill="none" stroke="#333333" d="M1786,-786.699C1786,-748.808 1786,-678.749 1786,-650.395"/>
<text text-anchor="middle" x="1789.5" y="-722.5" font-family="Microsoft YaHei" font-size="10.00">n</text>
</g>
<!-- R_supply&#45;&gt;Ingredient -->
<g id="edge9" class="edge"><title>R_supply&#45;&gt;Ingredient</title>
<path fill="none" stroke="#333333" d="M1577.45,-477.05C1605.55,-498.765 1659.14,-540.11 1705,-575 1727.42,-592.056 1753.45,-611.62 1769.83,-623.895"/>
<text text-anchor="middle" x="1710" y="-546.5" font-family="Microsoft YaHei" font-size="10.00">m</text>
</g>
<!-- R4&#45;&gt;Purchase -->
<g id="edge11" class="edge"><title>R4&#45;&gt;Purchase</title>
<path fill="none" stroke="#333333" d="M1475.97,-699.325C1476.52,-659.877 1473.39,-581.137 1444,-523 1393.74,-423.587 1282.97,-340.986 1239.25,-311.045"/>
<text text-anchor="middle" x="1466.5" y="-546.5" font-family="Microsoft YaHei" font-size="10.00">n</text>
</g>
<!-- R5&#45;&gt;Purchase -->
<g id="edge13" class="edge"><title>R5&#45;&gt;Purchase</title>
<path fill="none" stroke="#333333" d="M1138.15,-440.899C1157.7,-407.414 1197.63,-339.034 1213.88,-311.198"/>
<text text-anchor="middle" x="1194.5" y="-370.5" font-family="Microsoft YaHei" font-size="10.00">n</text>
</g>
<!-- R_purchase&#45;&gt;Ingredient -->
<g id="edge15" class="edge"><title>R_purchase&#45;&gt;Ingredient</title>
<path fill="none" stroke="#333333" d="M1620.64,-155.14C1648.22,-201.411 1717.88,-323.739 1753,-435 1774.93,-504.469 1782.93,-592.288 1785.22,-623.943"/>
<text text-anchor="middle" x="1744" y="-370.5" font-family="Microsoft YaHei" font-size="10.00">m</text>
</g>
<!-- R6&#45;&gt;PriceRec -->
<g id="edge17" class="edge"><title>R6&#45;&gt;PriceRec</title>
<path fill="none" stroke="#333333" d="M1955,-434.844C1955,-399.822 1955,-337.712 1955,-311.366"/>
<text text-anchor="middle" x="1958.5" y="-370.5" font-family="Microsoft YaHei" font-size="10.00">n</text>
</g>
<!-- R7&#45;&gt;DailyCtrl -->
<g id="edge19" class="edge"><title>R7&#45;&gt;DailyCtrl</title>
<path fill="none" stroke="#333333" d="M224.735,-628.512C196.864,-620.356 158.584,-604.355 139,-575 81.5116,-488.828 105.221,-352.155 114.161,-311.068"/>
<text text-anchor="middle" x="110.5" y="-458.5" font-family="Microsoft YaHei" font-size="10.00">n</text>
</g>
<!-- R8&#45;&gt;DailyCtrl -->
<g id="edge21" class="edge"><title>R8&#45;&gt;DailyCtrl</title>
<path fill="none" stroke="#333333" d="M322.545,-445.428C278.431,-414.002 175.032,-340.342 134.11,-311.189"/>
<text text-anchor="middle" x="260.5" y="-370.5" font-family="Microsoft YaHei" font-size="10.00">n</text>
</g>
<!-- R9&#45;&gt;DCItem -->
<g id="edge23" class="edge"><title>R9&#45;&gt;DCItem</title>
<path fill="none" stroke="#333333" d="M138.414,-109.136C138.838,-83.7355 139.477,-45.3636 139.799,-26.033"/>
<text text-anchor="middle" x="143.5" y="-65" font-family="Microsoft YaHei" font-size="10.00">n</text>
</g>
<!-- R10&#45;&gt;WeeklyInsp -->
<g id="edge25" class="edge"><title>R10&#45;&gt;WeeklyInsp</title>
<path fill="none" stroke="#333333" d="M1311.8,-523.215C1313.48,-470.689 1317.37,-349.826 1318.61,-311.144"/>
<text text-anchor="middle" x="1318.5" y="-458.5" font-family="Microsoft YaHei" font-size="10.00">n</text>
</g>
<!-- R11&#45;&gt;MonthlyDisp -->
<g id="edge27" class="edge"><title>R11&#45;&gt;MonthlyDisp</title>
<path fill="none" stroke="#333333" d="M873.588,-699.001C872.267,-618.754 868.161,-369.513 867.202,-311.263"/>
<text text-anchor="middle" x="875.5" y="-546.5" font-family="Microsoft YaHei" font-size="10.00">n</text>
</g>
<!-- R12&#45;&gt;MonthlyDisp -->
<g id="edge29" class="edge"><title>R12&#45;&gt;MonthlyDisp</title>
<path fill="none" stroke="#333333" d="M809.493,-439.282C823.419,-405.31 850.685,-338.798 861.948,-311.325"/>
<text text-anchor="middle" x="849.5" y="-370.5" font-family="Microsoft YaHei" font-size="10.00">n</text>
</g>
<!-- R13&#45;&gt;Order -->
<g id="edge31" class="edge"><title>R13&#45;&gt;Order</title>
<path fill="none" stroke="#333333" d="M194.533,-523.679C192.567,-475.909 192.667,-367.32 227,-285 275.519,-168.667 389.284,-61.2464 429.012,-26.0608"/>
<text text-anchor="middle" x="230.5" y="-295.5" font-family="Microsoft YaHei" font-size="10.00">n</text>
</g>
<!-- R14&#45;&gt;Order -->
<g id="edge33" class="edge"><title>R14&#45;&gt;Order</title>
<path fill="none" stroke="#333333" d="M572.042,-351.205C546.572,-284.648 467.558,-78.1732 447.61,-26.0473"/>
<text text-anchor="middle" x="535.5" y="-220.5" font-family="Microsoft YaHei" font-size="10.00">n</text>
</g>
<!-- R15&#45;&gt;IngAccept -->
<g id="edge35" class="edge"><title>R15&#45;&gt;IngAccept</title>
<path fill="none" stroke="#333333" d="M1398,-196.91C1398,-151.961 1398,-59.3051 1398,-26.1392"/>
<text text-anchor="middle" x="1401.5" y="-132.5" font-family="Microsoft YaHei" font-size="10.00">n</text>
</g>
<!-- R16&#45;&gt;IngAccept -->
<g id="edge37" class="edge"><title>R16&#45;&gt;IngAccept</title>
<path fill="none" stroke="#333333" d="M739.929,-354.992C758.203,-336.163 789.695,-305.739 821,-285 1011.98,-158.477 1271.37,-59.3793 1363.67,-26.0786"/>
<text text-anchor="middle" x="968.5" y="-220.5" font-family="Microsoft YaHei" font-size="10.00">n</text>
</g>
<!-- R17&#45;&gt;IngAccept -->
<g id="edge39" class="edge"><title>R17&#45;&gt;IngAccept</title>
<path fill="none" stroke="#333333" d="M1841.37,-207.616C1807.6,-184.528 1737.85,-138.775 1674,-109 1590.87,-70.2346 1487.32,-38.796 1433.78,-23.7023"/>
<text text-anchor="middle" x="1770.5" y="-132.5" font-family="Microsoft YaHei" font-size="10.00">n</text>
</g>
<!-- R18&#45;&gt;Evaluation -->
<g id="edge41" class="edge"><title>R18&#45;&gt;Evaluation</title>
<path fill="none" stroke="#333333" d="M46.3368,-700.395C42.8015,-666.966 37,-603.899 37,-550 37,-550 37,-550 37,-134 37,-94.625 37,-47.9825 37,-26.2652"/>
<text text-anchor="middle" x="40.5" y="-370.5" font-family="Microsoft YaHei" font-size="10.00">n</text>
</g>
<!-- R19&#45;&gt;Evaluation -->
<g id="edge43" class="edge"><title>R19&#45;&gt;Evaluation</title>
<path fill="none" stroke="#333333" d="M442.821,-353.564C404.32,-300.928 286.404,-148.206 155,-62 129.389,-45.198 96.9511,-32.5268 72.5701,-24.4347"/>
<text text-anchor="middle" x="360.5" y="-220.5" font-family="Microsoft YaHei" font-size="10.00">n</text>
</g>
<!-- R20&#45;&gt;StuNutri -->
<g id="edge45" class="edge"><title>R20&#45;&gt;StuNutri</title>
<path fill="none" stroke="#333333" d="M1070.19,-622.175C1103.59,-598.947 1167.25,-548.538 1192,-487 1218.57,-420.939 1156.47,-341.432 1129.62,-311.343"/>
<text text-anchor="middle" x="1202.5" y="-458.5" font-family="Microsoft YaHei" font-size="10.00">n</text>
</g>
<!-- R21&#45;&gt;StuNutri -->
<g id="edge47" class="edge"><title>R21&#45;&gt;StuNutri</title>
<path fill="none" stroke="#333333" d="M1010.65,-441.844C1035.49,-408.785 1087.5,-339.58 1108.7,-311.369"/>
<text text-anchor="middle" x="1082.5" y="-370.5" font-family="Microsoft YaHei" font-size="10.00">n</text>
</g>
<!-- R22&#45;&gt;StuNutri -->
<g id="edge49" class="edge"><title>R22&#45;&gt;StuNutri</title>
<path fill="none" stroke="#333333" d="M1661.34,-449.028C1649.67,-444.412 1635.76,-439.159 1623,-435 1532.79,-405.593 1253.28,-333.555 1153.69,-308.095"/>
<text text-anchor="middle" x="1495.5" y="-370.5" font-family="Microsoft YaHei" font-size="10.00">n</text>
</g>
<!-- R23&#45;&gt;Consump -->
<g id="edge51" class="edge"><title>R23&#45;&gt;Consump</title>
<path fill="none" stroke="#333333" d="M325.259,-536.342C306.409,-526.252 282.236,-509.697 271,-487 241.221,-426.845 268.754,-342.477 280.906,-311.249"/>
<text text-anchor="middle" x="274.5" y="-458.5" font-family="Microsoft YaHei" font-size="10.00">n</text>
</g>
<!-- R24&#45;&gt;Consump -->
<g id="edge53" class="edge"><title>R24&#45;&gt;Consump</title>
<path fill="none" stroke="#333333" d="M450.93,-446.576C432.38,-434.901 405.524,-417.062 384,-399 349.552,-370.092 313.714,-330.742 296.484,-311.139"/>
<text text-anchor="middle" x="387.5" y="-370.5" font-family="Microsoft YaHei" font-size="10.00">n</text>
</g>
</g>
</svg>
